<svg width="148" height="93" viewBox="0 0 148 93" fill="none" xmlns="http://www.w3.org/2000/svg">
<g clip-path="url(#clip0_202_1376)">
<mask id="mask0_202_1376" style="mask-type:luminance" maskUnits="userSpaceOnUse" x="48" y="0" width="51" height="51">
<path d="M56.173 6.82417C51.4902 11.0309 48.9033 16.4184 48.1768 22.6768C47.0773 32.148 51.7307 43.1936 62.4904 48.3056C64.6404 49.329 66.8836 50.0621 69.2397 50.4016C72.1947 50.8297 75.1694 50.7805 78.1391 50.7263C79.4595 50.7017 80.7799 50.6821 82.1003 50.7017C80.7848 50.2786 79.3957 50.2245 78.0704 49.8161C69.2692 47.115 63.4279 41.4076 60.6153 32.6154C60.1981 31.3116 59.8937 29.9831 59.7759 28.6203C59.7367 28.1627 59.6925 27.7101 59.6434 27.2574C59.3145 24.266 59.8054 21.4074 61.2878 18.7407C64.1053 13.6533 69.8435 10.8488 75.3854 11.7738C81.5408 12.7972 85.7769 17.3483 86.8568 23.0556C87.117 24.4234 87.1415 25.8355 86.9501 27.2131C86.4739 30.5932 84.9572 33.3879 82.4587 35.7151C86.5083 36.6155 89.8314 38.7213 92.8453 41.4322C94.1068 40.0153 95.064 38.4261 95.8936 36.7631C98.4804 31.5822 99.2953 26.1012 98.0681 20.4578C95.9869 10.898 90.2732 4.30999 80.9812 1.33824C78.1882 0.442781 75.4737 0.00489061 72.8378 0.00489061C66.7903 -2.94996e-05 61.1896 2.32226 56.173 6.82417Z" fill="white"/>
</mask>
<g mask="url(#mask0_202_1376)">
<path d="M99.2951 0H47.0723V50.8248H99.2951V0Z" fill="url(#paint0_linear_202_1376)"/>
</g>
<mask id="mask1_202_1376" style="mask-type:luminance" maskUnits="userSpaceOnUse" x="66" y="30" width="30" height="26">
<path d="M66.6734 33.8063C68.8185 40.5075 73.2706 44.8569 79.9758 46.9135C80.4814 47.071 81.0017 47.1546 81.5171 47.2481C82.6363 47.44 83.7702 47.5679 84.909 47.6023C85.0121 47.6073 85.1151 47.6073 85.2182 47.6122C89.4004 47.7991 92.5075 49.718 94.4906 53.4327C94.8784 54.1609 95.114 54.953 95.384 55.7353C95.4085 55.5139 95.4085 55.2974 95.3742 55.0858C94.2108 48.6405 90.7404 43.8926 84.9581 40.8569C82.1111 39.3611 79.0284 38.9085 75.8427 38.7707C71.9846 38.6035 69.113 36.6994 67.1692 33.3685C66.5998 32.3943 66.3004 31.3168 66.0059 30.2393C66.05 31.4594 66.3004 32.6452 66.6734 33.8063Z" fill="white"/>
</mask>
<g mask="url(#mask1_202_1376)">
<path d="M95.4027 30.2393H66V55.7353H95.4027V30.2393Z" fill="url(#paint1_linear_202_1376)"/>
</g>
<mask id="mask2_202_1376" style="mask-type:luminance" maskUnits="userSpaceOnUse" x="0" y="65" width="29" height="28">
<path d="M0 78.9432C0 81.3049 0.471228 83.3713 1.40387 85.0884C2.31196 86.8302 3.49003 88.3013 4.91844 89.4575C7.59855 91.6716 11.1033 92.9901 14.2939 92.9901C16.1887 92.9901 17.6858 92.5473 18.746 91.6666C19.5707 90.9237 20.6751 90.5055 21.8532 90.5055C23.2031 90.5055 24.494 91.0762 25.3972 92.0652C25.7752 92.444 26.1777 92.6359 26.6195 92.6359C27.8319 92.6359 28.632 91.4206 28.632 90.6187L28.6369 90.5399C28.6467 90.3382 28.6615 89.9151 27.9595 89.3296C26.3397 87.888 24.1603 87.1008 21.8188 87.1008C20.1106 87.1008 18.4564 87.5436 17.0378 88.3849C16.169 88.9507 15.0891 89.2361 13.7491 89.2361C9.11532 89.2361 3.95635 85.0097 3.95635 78.9432C3.95635 73.3245 8.61955 68.5765 14.1418 68.5765C17.4551 68.5765 20.5721 70.2395 22.4815 73.0243C23.7578 74.8841 24.4057 76.9211 24.4057 79.0662C24.4057 80.0994 24.2143 81.1819 23.8314 82.284C23.7381 82.5103 23.6988 82.717 23.6988 82.9728C23.6988 83.1302 23.6989 83.6026 24.1161 84.129C24.5382 84.6899 25.088 84.995 25.6721 84.995C26.9091 84.995 28.3571 83.4107 28.3571 78.9531C28.3571 71.2728 21.9808 65.0193 14.1418 65.0193C6.34195 65.0095 0 71.2629 0 78.9432Z" fill="white"/>
</mask>
<g mask="url(#mask2_202_1376)">
<path d="M28.6566 65.0095H0V92.9951H28.6566V65.0095Z" fill="white"/>
</g>
<mask id="mask3_202_1376" style="mask-type:luminance" maskUnits="userSpaceOnUse" x="32" y="74" width="18" height="19">
<path d="M42.8073 74.1265C35.8273 74.1265 32.6465 79.0171 32.6465 83.5632C32.6465 88.1094 35.8273 93 42.8073 93H47.2153C48.5504 93 49.1493 92.0652 49.1493 91.1402C49.1346 91.0566 49.11 90.8991 49.11 90.6679C49.11 90.5252 49.0217 90.2448 48.6093 89.7035C48.3099 89.3099 47.8534 89.123 47.2153 89.123H42.8073C38.7283 89.123 36.593 86.3185 36.593 83.5485C36.593 80.8818 38.5368 78.0134 42.8073 78.0134H47.2153C48.5308 78.0134 49.1198 77.0392 49.1198 76.0748C49.1198 75.1105 48.5308 74.1363 47.2153 74.1363H42.8073V74.1265Z" fill="white"/>
</mask>
<g mask="url(#mask3_202_1376)">
<path d="M49.1493 74.1265H32.6465V92.9951H49.1493V74.1265Z" fill="white"/>
</g>
<mask id="mask4_202_1376" style="mask-type:luminance" maskUnits="userSpaceOnUse" x="52" y="73" width="21" height="20">
<path d="M52.1152 83.0467C52.1152 89.1919 57.4116 92.9952 62.3154 92.9952C63.9843 92.9952 65.5354 92.636 67.0473 91.8931C68.0143 91.4109 68.1468 90.8254 68.1468 90.2645C68.1468 90.0923 68.0781 89.8463 67.9701 89.5314C67.8179 88.9607 67.0522 88.2079 66.1294 88.2079C65.8103 88.2079 65.4912 88.2866 65.236 88.4293C64.2739 88.9115 63.2922 89.1526 62.3154 89.1526C60.2243 89.1526 58.2805 88.1243 57.122 86.3973C56.0078 84.8376 56.0225 83.5043 56.0225 83.0664V83.0024C56.0225 82.107 56.2532 81.2213 56.6999 80.3603C57.7749 78.2447 59.8758 76.9753 62.3105 76.9753C64.8384 76.9753 66.9933 78.3431 67.9357 80.5473L68.191 81.1426H67.5431C67.3516 81.1426 67.1602 81.1328 66.9786 81.1229C66.8215 81.1131 66.6644 81.1033 66.5221 81.1033C65.3096 81.1033 63.9843 81.2312 62.4626 81.492C61.3582 81.7084 61.1226 82.4957 61.1226 83.1205C61.1226 83.2091 61.1373 83.3321 61.1618 83.4944C61.1716 83.583 61.1864 83.6863 61.1962 83.7946C61.3287 84.2915 62.0356 84.9016 62.6639 84.9016C62.821 84.9016 62.9977 84.8672 63.1695 84.8327C64.1905 84.567 65.3391 84.4293 66.5613 84.4293C67.975 84.4293 69.3641 84.6359 70.6993 85.0394C70.9104 85.1082 71.0625 85.1378 71.2049 85.1378C71.4601 85.1378 71.7056 85.0049 71.951 84.7294C72.5106 84.1636 72.5106 83.1107 72.5106 82.7663C72.5106 82.0233 72.3633 80.0651 70.9987 77.8609C70.0661 76.3554 68.3088 74.3725 65.2213 73.4722C64.2494 73.1819 63.3413 73.054 62.2712 73.054C56.6753 73.0589 52.1152 77.5411 52.1152 83.0467Z" fill="white"/>
</mask>
<g mask="url(#mask4_202_1376)">
<path d="M72.5155 73.0588H52.1152V92.9951H72.5155V73.0588Z" fill="white"/>
</g>
<mask id="mask5_202_1376" style="mask-type:luminance" maskUnits="userSpaceOnUse" x="77" y="73" width="19" height="20">
<path d="M77.3008 82.4956V91.0173C77.3008 92.3752 78.3267 92.9952 79.2741 92.9952C80.2263 92.9952 81.2473 92.3752 81.2473 91.0173V82.4956C81.2473 79.209 83.8194 77.4919 86.3572 77.4919C88.9146 77.4919 91.5063 79.209 91.5063 82.4956V91.0173C91.5063 92.3851 92.4979 92.9952 93.4796 92.9952C94.4515 92.9952 95.4921 92.3752 95.4921 91.0173V82.4956C95.4921 76.3307 91.0597 73.5706 86.6664 73.5706C82.018 73.5706 77.3008 76.6358 77.3008 82.4956Z" fill="white"/>
</mask>
<g mask="url(#mask5_202_1376)">
<path d="M95.4971 73.5706H77.3008V92.9952H95.4971V73.5706Z" fill="white"/>
</g>
<mask id="mask6_202_1376" style="mask-type:luminance" maskUnits="userSpaceOnUse" x="100" y="70" width="12" height="23">
<path d="M100.316 72.0796V84.7833C100.316 88.8621 103.345 92.995 109.137 92.995C110.453 92.995 111.042 92.0208 111.042 91.0565C111.042 90.0921 110.453 89.1179 109.137 89.1179C104.184 89.1179 104.184 85.2015 104.184 83.9174C104.184 83.8337 104.189 83.6812 104.199 83.4647C104.224 82.9284 104.263 82.033 104.263 80.8029V80.3749H107.012C107.611 80.3749 108.106 80.1732 108.445 79.7894C108.749 79.445 108.916 78.9727 108.916 78.461C108.916 77.5163 108.322 76.4978 107.012 76.4978H104.263V72.0845C104.263 70.6823 103.222 70.1853 102.329 70.1853C101.357 70.1804 100.316 70.7757 100.316 72.0796Z" fill="white"/>
</mask>
<g mask="url(#mask6_202_1376)">
<path d="M111.047 70.1804H100.316V92.9999H111.047V70.1804Z" fill="white"/>
</g>
<mask id="mask7_202_1376" style="mask-type:luminance" maskUnits="userSpaceOnUse" x="115" y="74" width="10" height="19">
<path d="M115.996 83.012V91.0957C115.996 92.498 117.042 92.9949 117.93 92.9949C118.902 92.9949 119.943 92.3996 119.943 91.0957C119.943 88.3552 119.903 86.8054 119.879 85.969C119.869 85.6246 119.864 85.3835 119.864 85.2162C119.864 81.9739 120.129 79.3957 123.492 78.1854C124.787 77.7426 124.822 76.5519 124.822 76.419V76.2616C124.822 74.756 123.855 74.4412 123.045 74.4412C120.316 74.4412 116.109 77.8606 115.996 83.012Z" fill="white"/>
</mask>
<g mask="url(#mask7_202_1376)">
<path d="M124.827 74.4412H115.996V92.9949H124.827V74.4412Z" fill="white"/>
</g>
<mask id="mask8_202_1376" style="mask-type:luminance" maskUnits="userSpaceOnUse" x="127" y="73" width="21" height="20">
<path d="M132.508 86.3136C131.394 84.4587 131.33 82.0134 132.346 80.0848C133.352 78.1167 135.394 76.9359 137.8 76.9359C141.859 76.9359 143.984 80.0011 143.984 83.027C143.984 84.6162 143.435 86.1021 142.433 87.2042C141.304 88.4539 139.699 89.1132 137.8 89.1132C135.473 89.1181 133.593 88.1193 132.508 86.3136ZM127.639 83.0467C127.639 84.3751 127.904 85.6592 128.429 86.8598C129.975 90.5892 133.652 92.9951 137.8 92.9951C143.425 92.9951 148 88.5326 148 83.0467C148 77.4476 143.518 73.0588 137.8 73.0588C132.199 73.0588 127.639 77.5411 127.639 83.0467Z" fill="white"/>
</mask>
<g mask="url(#mask8_202_1376)">
<path d="M148 73.0588H127.639V92.9951H148V73.0588Z" fill="white"/>
</g>
</g>
<defs>
<linearGradient id="paint0_linear_202_1376" x1="73.1837" y1="0" x2="73.1837" y2="50.8248" gradientUnits="userSpaceOnUse">
<stop stop-color="#FFDC60"/>
<stop offset="0.973958" stop-color="#FF8654"/>
</linearGradient>
<linearGradient id="paint1_linear_202_1376" x1="80.7013" y1="30.2393" x2="80.7013" y2="55.7353" gradientUnits="userSpaceOnUse">
<stop stop-color="#14D7C3"/>
<stop offset="0.994792" stop-color="#12B4A3"/>
</linearGradient>
<clipPath id="clip0_202_1376">
<rect width="148" height="93" fill="white"/>
</clipPath>
</defs>
</svg>
